<svg width="32" height="32" fill="none" xmlns="http://www.w3.org/2000/svg"><path d="M21 16a5 5 0 11-10 0c0-.285.03-.563.082-.833H9.333v6.661c0 .464.375.839.839.839H21.83a.838.838 0 00.837-.839v-6.661h-1.749c.052.27.082.548.082.833zm-5 3.333a3.334 3.334 0 10-.001-6.667A3.334 3.334 0 0016 19.333zm4-6.833h1.998a.502.502 0 00.502-.5v-1.998a.502.502 0 00-.502-.502H20a.501.501 0 00-.502.502V12c.002.275.227.5.502.5zM16 0a16 16 0 100 32 16 16 0 000-32zm8.333 22.482a1.857 1.857 0 01-1.851 1.851H9.518a1.857 1.857 0 01-1.851-1.851V9.518c0-1.018.833-1.851 1.851-1.851h12.964c1.018 0 1.851.833 1.851 1.851v12.964z" fill="#fff" fill-opacity=".3"/></svg>