<svg width="32" height="32" fill="none" xmlns="http://www.w3.org/2000/svg"><path d="M16 32c-2.167 0-4.24-.422-6.219-1.266-1.979-.843-3.682-1.979-5.11-3.406-1.426-1.427-2.562-3.13-3.405-5.11A15.697 15.697 0 010 16c0-2.167.422-4.24 1.266-6.219.843-1.979 1.979-3.682 3.406-5.11 1.427-1.426 3.13-2.562 5.11-3.405A15.696 15.696 0 0116 0c2.167 0 4.24.422 6.219 1.266 1.979.843 3.682 1.979 5.11 3.406 1.426 1.427 2.562 3.13 3.405 5.11A15.697 15.697 0 0132 16c0 2.167-.422 4.24-1.266 6.219-.843 1.979-1.979 3.682-3.406 5.11-1.427 1.426-3.13 2.562-5.11 3.405A15.698 15.698 0 0116 32zm9.406-24a5.912 5.912 0 00-.562.344l-.61.406-.578.313L23 9.28C22.23 8.427 21.281 8 20.156 8 17.72 8 16.5 9.02 16.5 11.063v1.843c-3.354-.166-5.927-1.396-7.719-3.687C8.261 9.76 8 10.354 8 11c0 1.375.51 2.417 1.531 3.125-.125 0-.302.01-.531.031-.23.021-.411.021-.547 0A1.566 1.566 0 018 14c0 .958.255 1.755.766 2.39.51.636 1.213 1.047 2.109 1.235-.208.25-.5.375-.875.375-.333 0-.625-.094-.875-.281 0 .812.39 1.442 1.172 1.89.781.448 1.661.683 2.64.703-.374.563-.921.985-1.64 1.266A6.246 6.246 0 019 22c-.292 0-.693-.073-1.203-.219A16.21 16.21 0 007 21.563c.333.666 1.016 1.24 2.047 1.718 1.031.48 2.338.719 3.922.719 1.396 0 2.698-.245 3.906-.734 1.208-.49 2.24-1.141 3.094-1.953a12.776 12.776 0 002.203-2.782 13.08 13.08 0 001.375-3.234C23.849 14.182 24 13.083 24 12c0-.042.125-.13.375-.266.25-.135.542-.317.875-.546.333-.23.583-.47.75-.72-1.125 0-1.875.022-2.25.063.73-.437 1.281-1.281 1.656-2.531z" fill="#fff" fill-opacity=".3"/></svg>