<svg width="27" height="34" fill="none" xmlns="http://www.w3.org/2000/svg"><g clip-path="url(#clip0)"><path d="M13.62.017L13.472 0 0 1.408v24.596L13.473 34l13.43-7.969.042-.025V1.408L13.62.017zm11.399 12.078L13.495 5.32l-.001-.104-.087.05-.088-.056v.109L1.925 12.086V3.139l11.548-1.21L25.02 3.14v8.956h-.001zM13.405 6.769l11.518 6.695-4.479 2.633-7.093-4.21-.014 1.412 5.904 3.503-.86.506-5.03-2.984-.014 1.411 3.827 2.27-.782.521-3.031-1.782-.014 1.409 1.853 1.088-1.8 1.078-11.356-6.733 11.371-6.817zm-11.48 8.318l11.411 6.773.016 1.041-7.942-4.715-.015 1.412 7.979 4.783.018 1.073-7.973-4.728-.013 1.41 8.021 4.81.046.025 8.143-4.86-.011-5.163 3.415-2.03v9.994l-11.548 6.854-11.547-6.853v-9.826z" fill="#F0C52E"/></g><defs><clipPath id="clip0"><path fill="#fff" d="M0 0h26.943v34H0z"/></clipPath></defs></svg>